<svg width="239" height="56" viewBox="0 0 239 56" fill="none" xmlns="http://www.w3.org/2000/svg">
<path d="M33.09 38.9002H12.99L7.7 54.2302H0L19.19 0.910156H27.05L46.24 54.2402H38.46L33.1 38.9102L33.09 38.9002ZM23.04 8.23016C23.04 8.23016 21.83 13.0602 20.93 15.7802L14.96 32.7002H31.13L25.24 15.7802C24.33 13.0602 23.2 8.23016 23.2 8.23016H23.05H23.04Z" fill="#CA2026"/>
<path d="M111.79 0.910156H119.27V54.2402H111.79V0.910156Z" fill="#0B4881"/>
<path d="M151.65 0C167.06 0 178.99 11.86 178.99 27.2C178.99 42.54 167.05 55.15 151.65 55.15C136.25 55.15 124.23 42.91 124.23 27.2C124.23 11.49 136.24 0 151.65 0ZM151.65 48.27C162.53 48.27 171.29 39.2 171.29 27.19C171.29 15.18 162.53 6.79 151.65 6.79C140.77 6.79 131.93 15.55 131.93 27.19C131.93 38.83 140.77 48.27 151.65 48.27Z" fill="#0B4881"/>
<path d="M188.27 0.910156H196.13L208.37 29.7702C209.58 32.7202 211.02 36.9502 211.02 36.9502H211.17C211.17 36.9502 212.6 32.7202 213.81 29.7702L226.04 0.910156H233.9L238.21 54.2402H230.81L228.17 20.6202C227.94 17.3702 228.1 12.7602 228.1 12.7602H227.95C227.95 12.7602 226.36 17.6702 225.08 20.6202L214.43 44.6402H207.78L197.2 20.6202C195.99 17.7502 194.33 12.6102 194.33 12.6102H194.18C194.18 12.6102 194.25 17.3702 194.03 20.6202L191.46 54.2402H183.98L188.27 0.910156Z" fill="#0B4881"/>
<path d="M76.9004 26.6402L72.6304 33.4502L59.5804 54.2402H51.1904L68.3804 26.6702L52.2504 0.910156H60.8704L72.6504 19.8202L76.9004 26.6402Z" fill="#CA2026"/>
<path d="M81.1201 26.6402L85.3901 33.4502L98.4401 54.2402H106.83L89.6401 26.6702L105.77 0.910156H97.1501L85.3701 19.8202L81.1201 26.6402Z" fill="#CA2026"/>
</svg>
