<svg width="100" height="100" viewBox="0 0 100 100" fill="none" xmlns="http://www.w3.org/2000/svg">
<path d="M0 12C0 5.37258 5.37258 0 12 0H88C94.6274 0 100 5.37258 100 12V88C100 94.6274 94.6274 100 88 100H12C5.37258 100 0 94.6274 0 88V12Z" fill="#252524"/>
<path d="M48 39.0883L43.8479 45.7285L31.1583 66H23L39.7153 39.1176L24.0307 14H32.4127L43.8674 32.4384L48 39.0883Z" fill="#CA2026"/>
<path d="M52 39.0883L56.1521 45.7285L68.8417 66H77L60.2847 39.1176L75.9693 14H67.5873L56.1326 32.4384L52 39.0883Z" fill="#CA2026"/>
<path d="M67.1143 71H72.5318C75.1585 71 76.9995 72.8246 76.9995 75.5497C76.9995 78.2749 75.1702 80.1696 72.5318 80.1696H69.6706V85H67.126V71.0117L67.1143 71ZM72.051 77.9591C73.5285 77.9591 74.3962 77.0117 74.3962 75.5497C74.3962 74.0877 73.5285 73.1871 72.0862 73.1871H69.6588V77.9591H72.051Z" fill="#0B4881"/>
<path d="M23 71H31.396V73.1871H25.5446V76.8597H30.2703V79.0468H25.5446V82.8129H31.7126V85H23V71.0117V71Z" fill="#0B4881"/>
<path d="M44.249 71H48.7754C50.2998 71 50.9916 71.117 51.6014 71.3977C53.0085 72.0292 53.888 73.3743 53.888 75.2222C53.888 76.8947 52.9968 78.4503 51.5193 79.0468V79.0819C51.5193 79.0819 51.7186 79.2807 51.9883 79.7719L54.873 85H52.0352L49.2561 79.7719H46.8053V85H44.2607V71.0117L44.249 71ZM49.0919 77.5614C50.4522 77.5614 51.3082 76.7544 51.3082 75.3509C51.3082 73.9474 50.7336 73.1754 48.7402 73.1754H46.8053V77.5497H49.0919V77.5614Z" fill="#0B4881"/>
</svg>
